<svg width="894" height="766" viewBox="0 0 894 766" fill="none" xmlns="http://www.w3.org/2000/svg">
<g filter="url(#filter0_f_9_85)">
<rect x="-87" y="157.6" width="117.6" height="117.6" transform="rotate(-90 -87 157.6)" fill="#E95122"/>
<rect x="50.2" y="157.6" width="117.6" height="117.6" transform="rotate(-90 50.2 157.6)" fill="#E95122"/>
<rect x="187.4" y="157.6" width="117.6" height="117.6" transform="rotate(-90 187.4 157.6)" fill="#E95122"/>
<rect x="324.6" y="157.6" width="117.6" height="117.6" transform="rotate(-90 324.6 157.6)" fill="url(#paint0_linear_9_85)"/>
<rect x="-87" y="299.7" width="117.6" height="117.6" transform="rotate(-90 -87 299.7)" fill="#E95122"/>
<rect x="50.2" y="299.7" width="117.6" height="117.6" transform="rotate(-90 50.2 299.7)" fill="#E95122"/>
<rect x="187.4" y="299.7" width="117.6" height="117.6" transform="rotate(-90 187.4 299.7)" fill="#E95122"/>
<rect x="324.6" y="299.7" width="117.6" height="117.6" transform="rotate(-90 324.6 299.7)" fill="#E95122"/>
<rect x="461.8" y="299.7" width="117.6" height="117.6" transform="rotate(-90 461.8 299.7)" fill="#E95122"/>
<rect x="599" y="299.7" width="117.6" height="117.6" transform="rotate(-90 599 299.7)" fill="url(#paint1_linear_9_85)"/>
<rect x="-87" y="583.9" width="117.6" height="117.6" transform="rotate(-90 -87 583.9)" fill="#E95122"/>
<rect x="50.2" y="583.9" width="117.6" height="117.6" transform="rotate(-90 50.2 583.9)" fill="#E95122"/>
<rect x="187.4" y="583.9" width="117.6" height="117.6" transform="rotate(-90 187.4 583.9)" fill="#E95122"/>
<rect x="324.6" y="583.9" width="117.6" height="117.6" transform="rotate(-90 324.6 583.9)" fill="#E95122"/>
<rect x="461.8" y="583.9" width="117.6" height="117.6" transform="rotate(-90 461.8 583.9)" fill="url(#paint2_linear_9_85)"/>
<rect x="-87" y="726" width="117.6" height="117.6" transform="rotate(-90 -87 726)" fill="#E95122"/>
<rect x="50.2" y="726" width="117.6" height="117.6" transform="rotate(-90 50.2 726)" fill="#E95122"/>
<rect x="187.4" y="726" width="117.6" height="117.6" transform="rotate(-90 187.4 726)" fill="url(#paint3_linear_9_85)"/>
<rect x="-87" y="441.8" width="117.6" height="117.6" transform="rotate(-90 -87 441.8)" fill="#E95122"/>
<rect x="50.2" y="441.8" width="117.6" height="117.6" transform="rotate(-90 50.2 441.8)" fill="#E95122"/>
<rect x="187.4" y="441.8" width="117.6" height="117.6" transform="rotate(-90 187.4 441.8)" fill="#E95122"/>
<rect x="324.6" y="441.8" width="117.6" height="117.6" transform="rotate(-90 324.6 441.8)" fill="#E95122"/>
<rect x="461.8" y="441.8" width="117.6" height="117.6" transform="rotate(-90 461.8 441.8)" fill="#E95122"/>
<rect x="599" y="441.8" width="117.6" height="117.6" transform="rotate(-90 599 441.8)" fill="#E95122"/>
<rect x="736.2" y="441.8" width="117.6" height="117.6" transform="rotate(-90 736.2 441.8)" fill="url(#paint4_linear_9_85)"/>
</g>
<defs>
<filter id="filter0_f_9_85" x="-127" y="-6.10352e-05" width="1020.8" height="766" filterUnits="userSpaceOnUse" color-interpolation-filters="sRGB">
<feFlood flood-opacity="0" result="BackgroundImageFix"/>
<feBlend mode="normal" in="SourceGraphic" in2="BackgroundImageFix" result="shape"/>
<feGaussianBlur stdDeviation="20" result="effect1_foregroundBlur_9_85"/>
</filter>
<linearGradient id="paint0_linear_9_85" x1="383.4" y1="157.6" x2="383.4" y2="275.2" gradientUnits="userSpaceOnUse">
<stop stop-color="#E95122"/>
<stop offset="1" stop-color="#E95122" stop-opacity="0"/>
</linearGradient>
<linearGradient id="paint1_linear_9_85" x1="657.8" y1="299.7" x2="657.8" y2="417.3" gradientUnits="userSpaceOnUse">
<stop stop-color="#E95122"/>
<stop offset="1" stop-color="#E95122" stop-opacity="0"/>
</linearGradient>
<linearGradient id="paint2_linear_9_85" x1="520.6" y1="583.9" x2="520.6" y2="701.5" gradientUnits="userSpaceOnUse">
<stop stop-color="#E95122"/>
<stop offset="1" stop-color="#E95122" stop-opacity="0"/>
</linearGradient>
<linearGradient id="paint3_linear_9_85" x1="246.2" y1="726" x2="246.2" y2="843.6" gradientUnits="userSpaceOnUse">
<stop stop-color="#E95122"/>
<stop offset="1" stop-color="#E95122" stop-opacity="0"/>
</linearGradient>
<linearGradient id="paint4_linear_9_85" x1="795" y1="441.8" x2="795" y2="559.4" gradientUnits="userSpaceOnUse">
<stop stop-color="#E95122"/>
<stop offset="1" stop-color="#E95122" stop-opacity="0"/>
</linearGradient>
</defs>
</svg>
